<?xml version="1.0" standalone="no"?>
<!DOCTYPE svg PUBLIC "-//W3C//DTD SVG 20010904//EN"
 "http://www.w3.org/TR/2001/REC-SVG-20010904/DTD/svg10.dtd">
<svg version="1.0" xmlns="http://www.w3.org/2000/svg"
 width="260.000000pt" height="260.000000pt" viewBox="0 0 260.000000 260.000000"
 preserveAspectRatio="xMidYMid meet">
<metadata>
Created by potrace 1.11, written by Peter Selinger 2001-2013
</metadata>
<g transform="translate(0.000000,260.000000) scale(0.100000,-0.100000)"
fill="#000000" stroke="none">
<path d="M503 1701 c-78 -3 -144 -9 -147 -12 -6 -5 313 -19 451 -19 56 0 63 2
63 20 0 19 -6 20 -112 18 -62 -1 -177 -4 -255 -7z"/>
<path d="M1650 1691 c0 -19 6 -21 63 -21 156 0 459 14 441 20 -10 4 -128 11
-261 15 -243 7 -243 7 -243 -14z"/>
<path d="M1165 1587 c-142 -38 -235 -137 -235 -252 0 -126 134 -236 308 -251
56 -5 87 0 186 26 97 25 124 29 149 20 43 -15 52 -13 34 8 -12 13 -17 36 -17
74 0 59 5 66 80 105 21 11 -1 13 -154 13 l-180 0 47 -30 47 -30 0 -58 c0 -49
-4 -62 -25 -82 -30 -28 -114 -38 -168 -21 -98 33 -149 178 -116 331 36 170
223 189 385 38 l64 -60 0 29 c0 17 -3 57 -6 90 l-7 61 -46 -30 -47 -29 -59 26
c-71 32 -168 40 -240 22z"/>
<path d="M218 1564 l42 -26 0 -198 0 -198 -42 -26 -43 -25 296 -1 296 0 7 77
c11 135 15 134 -77 29 l-82 -95 -97 -1 -98 0 0 125 0 125 49 0 c28 0 52 -4 56
-9 3 -5 23 -24 45 -41 l40 -32 -1 114 c-1 62 -3 104 -6 93 -3 -11 -26 -41 -51
-67 -39 -41 -52 -48 -84 -48 l-38 0 0 110 0 110 94 0 94 0 76 -82 76 -81 0 86
0 87 -297 0 -298 -1 43 -25z"/>
<path d="M1833 1563 l47 -26 0 -198 0 -197 -42 -26 -43 -25 298 -1 297 0 0 49
c0 26 3 70 6 97 7 49 7 49 -12 28 -10 -12 -58 -53 -105 -93 l-86 -71 -72 0
-71 0 0 218 0 217 48 27 47 27 -180 0 -180 1 48 -27z"/>
<path d="M148 970 c-4 -29 -3 -30 31 -29 24 1 28 3 14 6 -24 5 -32 23 -10 23
8 0 8 3 -2 9 -11 7 -9 10 10 14 20 4 19 5 -7 6 -28 1 -32 -3 -36 -29z"/>
<path d="M255 970 c0 -27 3 -30 30 -29 25 2 26 2 6 6 -18 4 -22 10 -18 29 2
14 -1 24 -7 24 -6 0 -11 -13 -11 -30z"/>
<path d="M365 970 c0 -26 4 -30 25 -29 17 1 19 3 8 6 -25 6 -23 43 2 43 14 0
20 -7 20 -22 0 -17 3 -19 12 -10 16 16 -8 42 -41 42 -22 0 -26 -4 -26 -30z"/>
<path d="M610 970 c0 -16 4 -30 8 -30 5 0 7 14 4 30 -2 17 -6 30 -8 30 -2 0
-4 -13 -4 -30z"/>
<path d="M728 970 c-4 -29 -3 -30 31 -29 24 1 28 3 14 6 -24 5 -32 23 -10 23
8 0 8 3 -2 9 -11 7 -9 10 10 14 20 4 19 5 -7 6 -28 1 -32 -3 -36 -29z"/>
<path d="M862 970 c0 -19 2 -27 5 -17 2 9 2 25 0 35 -3 9 -5 1 -5 -18z"/>
<path d="M1130 970 c0 -16 4 -30 8 -30 5 0 7 14 4 30 -2 17 -6 30 -8 30 -2 0
-4 -13 -4 -30z"/>
<path d="M1365 970 c0 -16 5 -30 10 -30 6 0 10 14 10 30 0 17 -4 30 -10 30 -5
0 -10 -13 -10 -30z"/>
<path d="M1435 990 c3 -5 10 -10 16 -10 5 0 9 5 9 10 0 6 -7 10 -16 10 -8 0
-12 -4 -9 -10z"/>
<path d="M1718 970 c4 -26 8 -30 36 -29 25 1 26 3 7 6 -18 4 -22 10 -18 29 3
18 0 24 -13 24 -13 0 -16 -7 -12 -30z"/>
<path d="M1825 970 c0 -24 4 -30 20 -29 11 0 14 3 8 6 -7 2 -13 13 -13 23 0
10 6 21 13 23 6 3 3 6 -8 6 -16 1 -20 -5 -20 -29z"/>
<path d="M1913 975 c12 -13 24 -20 25 -14 5 13 -17 39 -33 39 -9 0 -6 -9 8
-25z"/>
<path d="M1968 970 c-3 -23 -1 -30 11 -30 11 0 16 9 16 30 0 17 -5 30 -11 30
-7 0 -14 -13 -16 -30z"/>
<path d="M2045 970 c0 -16 5 -30 10 -30 6 0 10 14 10 30 0 17 -4 30 -10 30 -5
0 -10 -13 -10 -30z"/>
<path d="M2140 970 c0 -16 5 -30 10 -30 6 0 10 14 10 30 0 17 -4 30 -10 30 -5
0 -10 -13 -10 -30z"/>
<path d="M2235 970 c0 -27 3 -30 30 -29 24 1 25 3 8 6 -24 5 -32 23 -10 23 8
0 8 3 -2 9 -11 7 -9 10 10 14 21 4 20 4 -6 6 -27 1 -30 -2 -30 -29z"/>
<path d="M2335 970 c0 -24 4 -30 22 -30 34 0 53 11 53 30 0 19 -19 30 -53 30
-18 0 -22 -6 -22 -30z m60 0 c0 -8 -8 -16 -17 -18 -13 -2 -18 3 -18 18 0 15 5
20 18 18 9 -2 17 -10 17 -18z"/>
<path d="M484 979 c-3 -6 -1 -16 5 -22 8 -8 11 -5 11 11 0 24 -5 28 -16 11z"/>
<path d="M540 973 c0 -12 -8 -24 -17 -26 -15 -4 -15 -5 -2 -6 24 -2 45 27 31
41 -9 9 -12 7 -12 -9z"/>
<path d="M660 979 c0 -5 5 -7 10 -4 6 3 10 8 10 11 0 2 -4 4 -10 4 -5 0 -10
-5 -10 -11z"/>
<path d="M1004 979 c-3 -6 -1 -16 5 -22 8 -8 11 -5 11 11 0 24 -5 28 -16 11z"/>
<path d="M1180 979 c0 -5 5 -7 10 -4 6 3 10 8 10 11 0 2 -4 4 -10 4 -5 0 -10
-5 -10 -11z"/>
<path d="M1276 977 c3 -8 -5 -18 -17 -23 -18 -8 -14 -10 21 -11 l43 -2 -23 24
c-27 28 -32 31 -24 12z"/>
<path d="M1482 964 c10 -10 20 -15 24 -12 3 4 -5 12 -18 18 -22 12 -22 12 -6
-6z"/>
<path d="M1570 973 c8 -3 24 -10 35 -16 18 -9 19 -9 6 6 -7 10 -23 17 -35 16
-14 0 -16 -2 -6 -6z"/>
<path d="M655 950 c3 -5 11 -10 16 -10 6 0 7 5 4 10 -3 6 -11 10 -16 10 -6 0
-7 -4 -4 -10z"/>
<path d="M1175 950 c3 -5 11 -10 16 -10 6 0 7 5 4 10 -3 6 -11 10 -16 10 -6 0
-7 -4 -4 -10z"/>
<path d="M1898 943 c7 -3 16 -2 19 1 4 3 -2 6 -13 5 -11 0 -14 -3 -6 -6z"/>
<path d="M150 880 c0 -7 393 -10 1160 -10 767 0 1160 3 1160 10 0 7 -393 10
-1160 10 -767 0 -1160 -3 -1160 -10z"/>
</g>
</svg>
